<?xml version="1.0" encoding="UTF-8" standalone="no"?>
<!-- Created with Inkscape (http://www.inkscape.org/) -->

<svg
   xmlns:dc="http://purl.org/dc/elements/1.1/"
   xmlns:cc="http://creativecommons.org/ns#"
   xmlns:rdf="http://www.w3.org/1999/02/22-rdf-syntax-ns#"
   xmlns:svg="http://www.w3.org/2000/svg"
   xmlns="http://www.w3.org/2000/svg"
   xmlns:sodipodi="http://sodipodi.sourceforge.net/DTD/sodipodi-0.dtd"
   xmlns:inkscape="http://www.inkscape.org/namespaces/inkscape"
   width="128"
   height="128.00031"
   id="svg2"
   sodipodi:version="0.32"
   inkscape:version="0.92pre3 r"
   version="1.0"
   sodipodi:docname="system-menu-kerberos-small.svg"
   inkscape:output_extension="org.inkscape.output.svg.inkscape"
   viewBox="0 0 117.5987 117.59899"
   inkscape:export-filename="/home/pbonzini/krb-valid-ticket.svg-16x16.png"
   inkscape:export-xdpi="12.105948"
   inkscape:export-ydpi="12.105948">
  <defs
     id="defs4" />
  <sodipodi:namedview
     id="base"
     pagecolor="#ffffff"
     bordercolor="#666666"
     borderopacity="0.37647059"
     inkscape:pageopacity="0.0"
     inkscape:pageshadow="2"
     inkscape:zoom="2.8284271"
     inkscape:cx="-61.544177"
     inkscape:cy="65.896758"
     inkscape:document-units="px"
     inkscape:current-layer="layer1"
     width="48px"
     height="48px"
     inkscape:showpageshadow="false"
     inkscape:window-width="1366"
     inkscape:window-height="704"
     inkscape:window-x="0"
     inkscape:window-y="27"
     inkscape:snap-bbox="true"
     gridtolerance="10000"
     showborder="false"
     showgrid="false"
     borderlayer="false"
     inkscape:window-maximized="0"
     inkscape:snap-global="false"
     fit-margin-top="0"
     fit-margin-left="15.23951"
     fit-margin-right="15.23951"
     fit-margin-bottom="0"
     scale-x="0.9187"
     inkscape:pagecheckerboard="true">
    <inkscape:grid
       type="xygrid"
       id="grid6206"
       spacingx="0.5px"
       spacingy="0.5px"
       empspacing="2"
       visible="true"
       enabled="true"
       originx="9.682024"
       originy="3.4365654" />
    <inkscape:grid
       id="GridFromPre046Settings"
       type="xygrid"
       originx="9.682024"
       originy="3.4365654"
       spacingx="0.5px"
       spacingy="0.5px"
       color="#0000ff"
       empcolor="#0000ff"
       opacity="0.2"
       empopacity="0.4"
       empspacing="2"
       visible="true"
       enabled="true" />
  </sodipodi:namedview>
  <metadata
     id="metadata7">
    <rdf:RDF>
      <cc:Work
         rdf:about="">
        <dc:format>image/svg+xml</dc:format>
        <dc:type
           rdf:resource="http://purl.org/dc/dcmitype/StillImage" />
        <dc:creator>
          <cc:Agent>
            <dc:title>Paolo Bonzini</dc:title>
          </cc:Agent>
        </dc:creator>
        <cc:license
           rdf:resource="http://creativecommons.org/licenses/GPL/2.0/" />
        <dc:contibutor>
          <cc:Agent>
            <dc:title>Lapo Calamandrei</dc:title>
          </cc:Agent>
        </dc:contibutor>
        <dc:contributor>
          <cc:Agent>
            <dc:title>Ulisse Perusin</dc:title>
          </cc:Agent>
        </dc:contributor>
        <dc:title />
        <dc:subject>
          <rdf:Bag>
            <rdf:li>keys</rdf:li>
            <rdf:li>key</rdf:li>
            <rdf:li>password</rdf:li>
            <rdf:li>authentication</rdf:li>
          </rdf:Bag>
        </dc:subject>
      </cc:Work>
    </rdf:RDF>
  </metadata>
  <g
     inkscape:label="Livello 1"
     inkscape:groupmode="layer"
     id="layer1"
     transform="translate(9.2993513,-3.7402344)">
    <path
       style="color:#000000;font-style:normal;font-variant:normal;font-weight:normal;font-stretch:normal;font-size:medium;line-height:normal;font-family:sans-serif;font-variant-ligatures:normal;font-variant-position:normal;font-variant-caps:normal;font-variant-numeric:normal;font-variant-alternates:normal;font-feature-settings:normal;text-indent:0;text-align:start;text-decoration:none;text-decoration-line:none;text-decoration-style:solid;text-decoration-color:#000000;letter-spacing:normal;word-spacing:normal;text-transform:none;writing-mode:lr-tb;direction:ltr;text-orientation:mixed;dominant-baseline:auto;baseline-shift:baseline;text-anchor:start;white-space:normal;shape-padding:0;clip-rule:nonzero;display:inline;overflow:visible;visibility:visible;opacity:1;isolation:auto;mix-blend-mode:normal;color-interpolation:sRGB;color-interpolation-filters:linearRGB;solid-color:#000000;solid-opacity:1;vector-effect:none;fill:#ffffff;fill-opacity:1;fill-rule:evenodd;stroke:#ffffff;stroke-width:1.37810981;stroke-linecap:round;stroke-linejoin:miter;stroke-miterlimit:4;stroke-dasharray:none;stroke-dashoffset:0.69999993;stroke-opacity:1;color-rendering:auto;image-rendering:auto;shape-rendering:auto;text-rendering:auto;enable-background:accumulate"
       d="M 15.951777,0.81682199 C 13.507771,0.83350599 10.467245,1.474826 9.4049017,3.957447 c -1.0724402,2.793292 0.7178273,5.7068218 2.3665953,7.890356 3.008994,3.831064 6.912039,6.82344 10.883405,9.58816 l 0.8125,-2.746094 C 19.32428,15.670589 15.036508,12.448039 12.46902,7.9087456 11.931351,6.8862188 11.280998,5.1499417 12.51232,4.3344001 15.061754,3.0135503 18.106427,3.64764 20.810828,4.0697412 c 8.78417,1.9012672 16.996422,5.9144636 24.492828,10.7943248 2.092832,1.388679 4.121461,2.878912 6.032883,4.509397 1.055585,-0.893839 4.062309,-0.807317 1.762455,-2.096119 C 45.290923,10.810377 36.199061,5.9092141 26.576777,2.7445564 23.136129,1.6755531 19.574544,0.82357839 15.951777,0.81682199 Z"
       id="path4898"
       inkscape:connector-curvature="0"
       sodipodi:nodetypes="ccccccccccccc" />
    <path
       style="display:inline;overflow:visible;visibility:visible;opacity:1;fill:#ffffff;fill-opacity:1;fill-rule:evenodd;stroke:none;stroke-width:3;stroke-linecap:round;stroke-linejoin:round;stroke-miterlimit:4;stroke-dasharray:none;stroke-dashoffset:0;stroke-opacity:1;marker:none;marker-start:none;marker-mid:none;marker-end:none;enable-background:accumulate"
       d="M 8.7145666,95.484602 64.705123,111.33547 c 4.403859,-6.73248 -2.407861,-6.94957 -3.609502,-13.466762 2.436191,-6.590755 5.978591,-6.364443 -2.478433,-9.247614 -3.440439,-5.95769 4.337081,-10.757963 -3.65625,-13.650391 C 54.826819,69.22158 47.339735,70.264717 44.183594,66.412109 30.175541,56.22812 29.793555,33.112132 43.707031,22.660156 39.573391,19.747665 35.112725,17.308835 30.490234,15.265625 Z M 79.773438,23.744141 c 5.041231,4.734229 8.158912,11.407246 8.701171,18.289062 0.686035,-4.930709 3.928895,-10.056988 3.511719,-14.919922 -3.944583,-1.691648 -8.424725,-2.324055 -12.542969,-3.667969 z"
       id="rect3474"
       inkscape:connector-curvature="0"
       sodipodi:nodetypes="cccccccccccccc" />
    <path
       style="color:#000000;font-style:normal;font-variant:normal;font-weight:normal;font-stretch:normal;font-size:medium;line-height:normal;font-family:sans-serif;font-variant-ligatures:normal;font-variant-position:normal;font-variant-caps:normal;font-variant-numeric:normal;font-variant-alternates:normal;font-feature-settings:normal;text-indent:0;text-align:start;text-decoration:none;text-decoration-line:none;text-decoration-style:solid;text-decoration-color:#000000;letter-spacing:normal;word-spacing:normal;text-transform:none;writing-mode:lr-tb;direction:ltr;text-orientation:mixed;dominant-baseline:auto;baseline-shift:baseline;text-anchor:start;white-space:normal;shape-padding:0;clip-rule:nonzero;display:inline;overflow:visible;visibility:visible;opacity:1;isolation:auto;mix-blend-mode:normal;color-interpolation:sRGB;color-interpolation-filters:linearRGB;solid-color:#000000;solid-opacity:1;vector-effect:none;fill:#ffffff;fill-opacity:1;fill-rule:evenodd;stroke:none;stroke-width:2.73600006;stroke-linecap:round;stroke-linejoin:miter;stroke-miterlimit:4;stroke-dasharray:none;stroke-dashoffset:0;stroke-opacity:1;color-rendering:auto;image-rendering:auto;shape-rendering:auto;text-rendering:auto;enable-background:accumulate"
       d="m 83.025391,38.183593 c 2.37381,8.859179 -0.635053,18.339428 -7.126953,23.9375 L 75.25,62.68164 l 12.66211,47.25977 -1.632813,4.82812 -7.191406,1.92774 -9.113281,-3.99414 -0.580078,-2.16211 4.074218,-7.05664 -7.05664,-4.072271 -0.53125,-1.982422 5.794922,-5.136719 -1.333985,-4.978515 -7.58789,-1.552735 L 62.22461,83.78125 66.296876,76.724609 59.242188,72.65039 57.820313,67.345703 56.96875,67.189453 C 48.463169,65.629891 41.286058,59.157716 38.894532,50.232421 35.93423,34.391762 45.901322,23.678438 56.954864,21.742316 67.514305,19.89274 79.021535,26.184313 83.025391,38.183593 Z M 59.376954,25.855468 c -1.066662,-0.150094 -2.179292,-0.0941 -3.28125,0.201172 -4.407836,1.181075 -7.044358,5.750369 -5.863282,10.158203 1.181075,4.407836 5.748416,7.046311 10.15625,5.865235 4.407835,-1.181075 7.046311,-5.750369 5.865235,-10.158203 -0.885807,-3.305876 -3.676969,-5.616123 -6.876953,-6.066407 z"
       id="path6767-6"
       inkscape:connector-curvature="0"
       sodipodi:nodetypes="ccccccccccccccccccccscscssss" />
  </g>
</svg>
